<svg width="160" height="160" viewBox="0 0 160 160" fill="none" xmlns="http://www.w3.org/2000/svg">
<path d="M96.2 3.40016C88.2 8.73349 87 13.0002 87 36.3335C87 59.6668 88.2 63.9335 96.2 69.2668C100.467 72.2002 102.067 72.3335 123.533 72.3335C143.8 72.3335 146.867 72.0668 150.6 69.6668C158.6 64.8668 159.667 61.0002 159.667 36.3335C159.667 11.6668 158.6 7.80016 150.6 3.00016C146.867 0.600159 143.8 0.333492 123.533 0.333492C102.067 0.333492 100.467 0.466826 96.2 3.40016ZM145.667 16.2002C147.4 19.6668 147.4 53.0002 145.667 56.4668C144.333 58.7335 142.6 59.0002 123.933 59.0002C109.8 59.0002 103 58.4668 101.933 57.4002C99.6667 55.1335 99.6667 17.5335 101.933 15.2668C103 14.2002 109.8 13.6668 123.933 13.6668C142.6 13.6668 144.333 13.9335 145.667 16.2002Z" fill="white"/>
<path d="M11 89.4001C8.46671 90.6001 5.00004 93.6667 3.40004 96.2001C0.466707 100.467 0.333374 102.067 0.333374 123.533C0.333374 143.8 0.600041 146.867 3.00004 150.6C7.80004 158.6 11.6667 159.667 36.3334 159.667C61 159.667 64.8667 158.6 69.6667 150.6C72.0667 146.867 72.3334 143.8 72.3334 123.533C72.3334 102.067 72.2 100.467 69.2667 96.2001C63.9334 88.2001 59.6667 87.0001 36.3334 87.0001C19.2667 87.0001 14.8667 87.4001 11 89.4001ZM57.4 101.933C58.4667 103 59 109.8 59 123.933C59 142.6 58.7334 144.333 56.4667 145.667C53 147.4 19.6667 147.4 16.2 145.667C13.9334 144.333 13.6667 142.6 13.6667 123.933C13.6667 109.8 14.2 103 15.2667 101.933C17.5334 99.6667 55.1334 99.6667 57.4 101.933Z" fill="white"/>
<path d="M110.467 89.6668C97.5333 94.7335 87 109.533 87 122.867C87 149.8 115.267 167.667 139.4 155.933C152.467 149.4 159.533 137.933 159.4 123C159.267 97.8001 133.933 80.4668 110.467 89.6668ZM137 105C142.467 109.133 147 117.533 147 123.667C147 128.467 143 137.533 139.533 140.6C135.933 143.8 127.8 147 123.4 147C113.533 146.867 102.333 137.4 100.733 127.8C99.1333 117.4 104.867 106.467 114.333 102.067C120.733 99.2668 131.267 100.467 137 105Z" fill="white"/>
<path d="M23.4667 2.49982C10.5333 7.56648 0 22.3665 0 35.6998C0 62.6332 28.2667 80.4998 52.4 68.7665C65.4667 62.2332 72.5333 50.7665 72.4 35.8332C72.2667 10.6332 46.9333 -6.70018 23.4667 2.49982ZM50 17.8332C55.4667 21.9665 60 30.3665 60 36.4998C60 41.2998 56 50.3665 52.5333 53.4332C48.9333 56.6332 40.8 59.8332 36.4 59.8332C26.5333 59.6998 15.3333 50.2332 13.7333 40.6332C12.1333 30.2332 17.8667 19.2998 27.3333 14.8998C33.7333 12.0998 44.2667 13.2998 50 17.8332Z" fill="white"/>
</svg>
