<?xml version="1.0" standalone="no"?>
<!DOCTYPE svg PUBLIC "-//W3C//DTD SVG 20010904//EN"
 "http://www.w3.org/TR/2001/REC-SVG-20010904/DTD/svg10.dtd">
<svg version="1.0" xmlns="http://www.w3.org/2000/svg"
 width="1920.000000pt" height="1920.000000pt" viewBox="0 0 1920.000000 1920.000000"
 preserveAspectRatio="xMidYMid meet">

<g transform="translate(0.000000,1920.000000) scale(0.100000,-0.100000)"
fill="#fff" stroke="none">
<path d="M6258 15697 c-66 -19 -152 -78 -193 -135 -61 -82 -76 -139 -82 -304
l-6 -148 -46 0 c-25 0 -91 -7 -146 -15 -722 -102 -1321 -535 -1635 -1180 -105
-215 -158 -385 -197 -635 -17 -109 -18 -309 -18 -4070 0 -3803 1 -3960 19
-4075 39 -254 104 -456 218 -674 204 -394 510 -703 900 -910 268 -143 555
-221 888 -242 111 -7 1417 -9 4000 -7 3548 4 3843 5 3938 21 504 83 920 296
1252 643 331 347 533 786 580 1263 14 143 14 7819 0 7962 -82 825 -644 1540
-1420 1803 l-135 46 -5 192 c-5 183 -6 196 -32 251 -38 80 -115 158 -191 193
-55 26 -73 29 -162 29 -90 0 -106 -3 -160 -29 -76 -38 -143 -105 -181 -181
-27 -57 -29 -68 -34 -220 l-5 -160 -542 -3 -543 -2 0 113 c0 135 -13 214 -47
280 -34 67 -106 137 -178 173 -54 26 -70 29 -160 29 -89 0 -107 -3 -163 -29
-80 -37 -161 -122 -193 -203 -19 -49 -24 -81 -27 -211 l-4 -152 -541 2 -542 3
-5 155 c-5 151 -6 158 -38 222 -41 84 -100 143 -182 182 -59 28 -74 31 -165
31 -90 0 -106 -3 -160 -29 -76 -38 -149 -111 -183 -184 -25 -52 -27 -70 -32
-217 l-5 -160 -545 0 -545 0 -5 160 c-5 147 -7 165 -32 217 -34 74 -112 152
-186 186 -50 24 -69 27 -157 27 -93 0 -105 -2 -166 -32 -80 -40 -150 -111
-187 -191 -24 -52 -27 -72 -32 -212 l-5 -155 -540 0 -540 0 -5 155 c-5 143 -8
160 -33 216 -36 78 -113 154 -192 190 -71 33 -191 42 -267 21z m-277 -1444
c-4 -179 30 -290 114 -376 189 -191 501 -136 622 111 25 52 28 69 33 207 l5
150 543 3 542 2 0 -129 c0 -151 19 -227 75 -303 170 -231 525 -199 652 60 26
53 28 68 33 212 l5 155 545 0 545 0 5 -155 c5 -144 8 -159 33 -212 73 -150
242 -238 403 -211 131 23 238 104 292 221 23 52 26 71 30 210 l4 152 544 0
544 0 0 -123 c0 -142 16 -219 62 -290 131 -205 425 -234 596 -59 83 86 112
180 112 363 l0 109 543 -2 542 -3 5 -155 c5 -146 7 -158 34 -211 96 -190 324
-270 512 -179 70 34 140 104 175 176 27 54 33 79 37 159 l5 94 51 -26 c379
-191 653 -560 732 -988 15 -79 19 -150 19 -340 l0 -240 -5138 -3 -5139 -2 5
277 c6 356 26 455 142 688 203 407 616 697 1061 744 38 4 71 6 73 4 2 -1 3
-42 2 -90z m8994 -5678 c0 -3058 -1 -3286 -17 -3371 -115 -604 -598 -1056
-1202 -1125 -62 -7 -1344 -9 -3981 -7 l-3890 3 -100 23 c-103 24 -258 78 -335
117 -77 40 -208 129 -278 190 -227 200 -375 448 -448 755 -18 71 -19 237 -21
3388 l-3 3312 5137 -2 5138 -3 0 -3280z"/>
<path d="M6820 10040 l0 -540 535 0 535 0 0 540 0 540 -535 0 -535 0 0 -540z"/>
<path d="M9307 10573 c-4 -3 -7 -246 -7 -540 l0 -533 535 0 535 0 0 540 0 540
-528 0 c-291 0 -532 -3 -535 -7z"/>
<path d="M11785 10568 c-3 -7 -4 -249 -3 -538 l3 -525 535 0 535 0 0 535 0
535 -533 3 c-421 2 -534 0 -537 -10z"/>
<path d="M6820 7870 l0 -540 535 0 535 0 0 540 0 540 -535 0 -535 0 0 -540z"/>
<path d="M9307 8403 c-4 -3 -7 -246 -7 -540 l0 -533 535 0 535 0 0 540 0 540
-528 0 c-291 0 -532 -3 -535 -7z"/>
<path d="M11785 8398 c-3 -7 -4 -249 -3 -538 l3 -525 535 0 535 0 0 535 0 535
-533 3 c-421 2 -534 0 -537 -10z"/>
<path d="M6820 5700 l0 -540 535 0 535 0 0 540 0 540 -535 0 -535 0 0 -540z"/>
<path d="M9300 5700 l0 -540 535 0 535 0 0 540 0 540 -535 0 -535 0 0 -540z"/>
<path d="M11785 6228 c-3 -7 -4 -249 -3 -538 l3 -525 535 0 535 0 0 535 0 535
-533 3 c-421 2 -534 0 -537 -10z"/>
</g>
</svg>
