<?xml version="1.0" standalone="no"?>
<!DOCTYPE svg PUBLIC "-//W3C//DTD SVG 20010904//EN"
 "http://www.w3.org/TR/2001/REC-SVG-20010904/DTD/svg10.dtd">
<svg version="1.0" xmlns="http://www.w3.org/2000/svg"
 width="512.000000pt" height="512.000000pt" viewBox="0 0 512.000000 512.000000"
 preserveAspectRatio="xMidYMid meet">

<g transform="translate(0.000000,512.000000) scale(0.100000,-0.100000)"
fill="#000000" stroke="none">
<path d="M3735 4157 c-22 -8 -51 -19 -65 -26 -14 -7 -269 -257 -567 -554
l-543 -542 -532 531 c-349 348 -550 541 -583 560 -45 26 -59 29 -145 29 -86 0
-100 -3 -147 -29 -70 -39 -138 -108 -171 -176 -22 -46 -27 -68 -27 -135 0
-133 -13 -117 593 -719 l537 -535 -531 -533 c-347 -348 -541 -550 -560 -583
-26 -45 -29 -59 -29 -145 0 -86 3 -100 29 -147 39 -70 108 -138 176 -171 46
-22 68 -27 135 -27 134 0 117 -13 720 593 l534 537 543 -542 c605 -604 584
-587 715 -587 60 1 82 6 137 33 128 63 206 183 206 319 0 128 10 115 -588 715
l-536 537 545 548 c608 609 584 579 584 717 0 59 -5 81 -32 136 -59 119 -173
198 -297 205 -34 2 -79 -2 -101 -9z"/>
</g>
</svg>
