<?xml version="1.0" standalone="no"?>
<!DOCTYPE svg PUBLIC "-//W3C//DTD SVG 20010904//EN"
 "http://www.w3.org/TR/2001/REC-SVG-20010904/DTD/svg10.dtd">
<svg version="1.0" xmlns="http://www.w3.org/2000/svg"
 width="1200.000000pt" height="1200.000000pt" viewBox="0 0 1200.000000 1200.000000"
 preserveAspectRatio="xMidYMid meet">

<g transform="translate(0.000000,1200.000000) scale(0.100000,-0.100000)"
fill="#fff" stroke="none">
<path d="M5735 9994 c-852 -69 -1591 -358 -2245 -881 -174 -139 -466 -431
-604 -603 -484 -607 -767 -1283 -863 -2060 -27 -221 -25 -705 5 -932 94 -719
348 -1354 764 -1909 136 -182 188 -241 392 -444 330 -328 653 -560 1051 -755
428 -209 827 -327 1315 -387 183 -22 696 -25 865 -5 510 62 912 178 1340 387
411 201 735 433 1070 769 244 244 372 400 537 656 334 517 536 1080 615 1720
27 225 25 706 -6 935 -122 920 -501 1694 -1146 2341 -558 559 -1264 941 -2021
1093 -270 54 -451 72 -749 76 -148 1 -292 1 -320 -1z m675 -438 c261 -32 457
-75 693 -152 434 -142 858 -377 1202 -667 95 -81 320 -304 404 -402 789 -914
1062 -2153 732 -3321 -138 -487 -370 -922 -710 -1329 -92 -110 -320 -338 -423
-422 l-76 -63 -6 33 c-3 17 -46 367 -96 777 -50 410 -97 774 -106 809 -37 161
-129 323 -251 443 -107 106 -195 163 -326 212 -124 46 -198 56 -437 56 -121 0
-220 3 -220 8 1 4 25 24 55 45 65 47 218 201 280 281 178 231 298 532 336 839
17 143 6 434 -21 562 -72 341 -223 628 -449 855 -304 305 -681 448 -1101 418
-687 -49 -1257 -645 -1351 -1412 -17 -141 -6 -432 21 -561 42 -201 128 -417
227 -572 97 -153 254 -328 368 -409 30 -22 54 -42 55 -46 0 -3 -111 -8 -247
-10 -210 -4 -259 -8 -318 -25 -269 -78 -477 -248 -598 -488 -74 -148 -68 -114
-197 -1170 -39 -319 -74 -595 -78 -612 l-7 -33 -100 87 c-626 539 -1050 1286
-1189 2094 -42 240 -51 351 -51 619 1 315 18 478 81 775 128 596 441 1194 860
1645 628 675 1438 1070 2354 1150 147 12 541 4 690 -14z m-238 -1450 c360 -70
664 -348 802 -735 57 -160 70 -241 71 -446 0 -212 -9 -273 -62 -434 -104 -314
-311 -560 -579 -688 -150 -71 -223 -87 -404 -87 -182 0 -259 17 -407 89 -395
192 -643 622 -643 1116 0 581 368 1083 870 1184 88 18 262 18 352 1z m1072
-3011 c139 -36 259 -130 324 -251 44 -84 55 -144 103 -544 22 -190 69 -574
104 -855 l63 -510 -21 -17 c-33 -26 -317 -170 -437 -221 -189 -80 -442 -158
-660 -202 -699 -143 -1421 -75 -2081 196 -128 52 -417 197 -455 227 l-22 17
44 355 c43 347 85 690 144 1175 17 132 35 258 41 280 45 163 191 304 361 349
82 22 2407 23 2492 1z"/>
</g>
</svg>
