<svg width="15" height="16" viewBox="0 0 15 16" fill="none" xmlns="http://www.w3.org/2000/svg">
    <path fill-rule="evenodd" clip-rule="evenodd" d="M1.5 8.00017C1.5 5.53101 2.99198 3.40944 5.12349 2.48901C4.88136 3.1987 4.75 3.95948 4.75 4.75022C4.75 8.61621 7.88401 11.7502 11.75 11.7502C11.8995 11.7502 12.048 11.7455 12.1953 11.7362C11.0955 13.1165 9.40047 14.0002 7.5 14.0002C4.18629 14.0002 1.5 11.3139 1.5 8.00017ZM6.41706 0.577881C2.78784 1.10322 0 4.22548 0 8.00017C0 12.1423 3.35786 15.5002 7.5 15.5002C10.5798 15.5002 13.2244 13.6439 14.3792 10.9922L13.4588 9.97982C12.9218 10.1551 12.3478 10.2502 11.75 10.2502C8.71243 10.2502 6.25 7.78779 6.25 4.75022C6.25 3.63443 6.58146 2.59835 7.15111 1.73229L6.41706 0.577881ZM13.25 1.00012V1.75012V2.75012H14.25H15V4.25012H14.25H13.25V5.25012V6.00012H11.75V5.25012V4.25012H10.75H10V2.75012H10.75H11.75V1.75012V1.00012H13.25Z" fill="#fff"/>
    </svg>
    