<svg width="17" height="17" viewBox="0 0 17 17" fill="none" xmlns="http://www.w3.org/2000/svg">
    <path fill-rule="evenodd" clip-rule="evenodd" d="M9.41675 1.41675V0.666748H7.91675V1.41675V2.66675V3.41675H9.41675V2.66675V1.41675ZM11.8487 4.42407L12.379 3.89374L12.7326 3.54019L13.2629 3.00986L14.3236 4.07052L13.7932 4.60085L13.4397 4.9544L12.9093 5.48473L11.8487 4.42407ZM8.66675 11.1667C10.0475 11.1667 11.1667 10.0475 11.1667 8.66675C11.1667 7.28604 10.0475 6.16675 8.66675 6.16675C7.28604 6.16675 6.16675 7.28604 6.16675 8.66675C6.16675 10.0475 7.28604 11.1667 8.66675 11.1667ZM8.66675 12.6667C10.8758 12.6667 12.6667 10.8758 12.6667 8.66675C12.6667 6.45761 10.8758 4.66675 8.66675 4.66675C6.45761 4.66675 4.66675 6.45761 4.66675 8.66675C4.66675 10.8758 6.45761 12.6667 8.66675 12.6667ZM13.9167 7.91675H14.6667H15.9167H16.6667V9.41675H15.9167H14.6667H13.9167V7.91675ZM1.41675 7.91675H0.666748V9.41675H1.41675H2.66675H3.41675V7.91675H2.66675H1.41675ZM3.54023 12.7326L3.0099 13.2629L4.07056 14.3236L4.60089 13.7932L4.95444 13.4397L5.48477 12.9093L4.42411 11.8487L3.89378 12.379L3.54023 12.7326ZM4.4241 5.48473L3.89377 4.9544L3.54022 4.60085L3.00989 4.07052L4.07055 3.00986L4.60088 3.54019L4.95443 3.89374L5.48477 4.42407L4.4241 5.48473ZM12.7326 13.7932L13.2629 14.3236L14.3236 13.2629L13.7932 12.7326L13.4397 12.379L12.9093 11.8487L11.8487 12.9093L12.379 13.4397L12.7326 13.7932ZM9.41675 13.9167V14.6667V15.9167V16.6667H7.91675V15.9167V14.6667V13.9167H9.41675Z" fill="#fff"/>
    </svg>
    